# xmcd CD database file
#
# Track frame offsets:
#	150
#	21442
#	36175
#	46600
#	60945
#	83500
#	97707
#	112320
#	125282
#	142000
#	155725
#	167950
#	186725
#	203312
#	224512
#	240665
#	255905
#	272210
#	305010
#
# Disc length: 4175 seconds
#
# Revision: 0
# Processed by: cddbd v1.5.1PL0 Copyright (c) Steve Scherf et al.
# Submitted via: CDex 1.51
#
DISCID=0a104d13
DTITLE=Valdemar Rasmussen - Kærlighed af guld
DYEAR=1995
DGENRE=Jazz
TTITLE0=I Noldes landskab (c)
TTITLE1=Kærlighed af Guld (e)
TTITLE2=Et kys i æ Liebestempel (a)
TTITLE3=Kålgårdsvise (a)
TTITLE4=En togngsbåd til Heine (a)
TTITLE5=Sønderjysk Kaffebord (a)
TTITLE6=Gode råd (a)
TTITLE7=Hymne til Marsken (a)
TTITLE8=Æ Punch Sti (a)
TTITLE9=Høslet (a)
TTITLE10=Kagmanden (a)
TTITLE11=Vadehavskoralen (a)
TTITLE12=Marsken diser (a)
TTITLE13=Farvernes land  (d) - tekst: Jens Rosendal
TTITLE14=Vandtårnsmusik (e)
TTITLE15=Den yndigste Rose er funden (b) - Klug - H.A. Brorson
TTITLE16=Her kommer, Jesus, dine små (b) - J.A.P. Schulz - H.A. Brorson
TTITLE17=For en fremmed barskt og fattigt (f) - Ernst A. Kiørboe - A. Engeberg Jensen
TTITLE18=I Noldes landskab (b)
EXTD=YEAR: 1995
EXTT0=
EXTT1=
EXTT2=
EXTT3=
EXTT4=
EXTT5=
EXTT6=
EXTT7=
EXTT8=
EXTT9=
EXTT10=
EXTT11=
EXTT12=
EXTT13=
EXTT14=
EXTT15=
EXTT16=
EXTT17=
EXTT18=
PLAYORDER=
